<?xml version="1.0" standalone="no"?>
<!DOCTYPE svg PUBLIC "-//W3C//DTD SVG 20010904//EN"
 "http://www.w3.org/TR/2001/REC-SVG-20010904/DTD/svg10.dtd">
<svg version="1.0" xmlns="http://www.w3.org/2000/svg"
 width="304.000000pt" height="304.000000pt" viewBox="0 0 304.000000 304.000000"
 preserveAspectRatio="xMidYMid meet">
<metadata>
Created by potrace 1.14, written by Peter Selinger 2001-2017
</metadata>
<g transform="translate(0.000000,304.000000) scale(0.100000,-0.100000)"
fill="#000000" stroke="none">
<path d="M1467 3034 c-1 -1 -31 -5 -67 -8 -60 -5 -79 -8 -135 -20 -11 -2 -54
-16 -95 -31 -41 -15 -106 -33 -143 -40 -258 -53 -473 -298 -562 -642 -41 -155
-52 -251 -60 -493 -5 -147 -8 -170 -32 -245 -15 -46 -74 -165 -112 -225 -15
-24 -15 -25 4 -10 26 19 82 79 102 108 8 12 20 22 25 22 7 0 7 -4 1 -12 -20
-25 -83 -195 -99 -262 -15 -67 -21 -162 -11 -172 3 -3 13 21 23 53 22 73 140
300 150 290 2 -2 -2 -28 -10 -58 -8 -30 -17 -76 -20 -104 -19 -156 -22 -189
-20 -251 5 -175 40 -327 38 -168 -1 84 7 150 27 239 l14 60 5 -70 c6 -83 4
-317 -4 -360 -4 -25 -2 -23 15 13 11 24 22 42 24 40 4 -4 -27 -130 -40 -160
-10 -25 2 -22 38 8 47 40 91 103 121 174 21 50 26 57 22 30 -3 -19 -8 -57 -12
-85 -3 -27 -12 -62 -20 -76 -7 -15 -10 -29 -7 -33 4 -3 1 -6 -5 -6 -7 0 -11
-3 -11 -7 1 -5 1 -15 0 -23 -1 -17 -146 -274 -227 -405 -28 -44 -54 -86 -58
-92 -6 -10 186 -13 943 -13 l951 0 -11 26 c-16 44 -83 176 -112 221 -46 72
-88 113 -147 143 -51 26 -165 62 -198 63 -8 0 -10 7 -6 16 13 33 34 117 34
140 0 21 4 18 30 -21 27 -41 68 -78 86 -78 3 0 -1 11 -9 24 -16 23 -15 24 54
62 39 21 86 56 106 77 46 51 118 205 134 287 l13 65 19 -65 c21 -71 45 -110
31 -50 -13 57 -12 182 2 220 7 19 18 54 24 77 8 33 19 46 53 66 52 31 147 124
188 184 80 116 132 288 133 445 1 29 5 43 10 38 5 -5 11 -65 12 -132 4 -144
-16 -244 -69 -350 -48 -97 -10 -55 45 49 54 103 69 170 70 321 2 174 -26 313
-92 460 -163 358 -546 650 -961 732 -50 10 -186 20 -192 14z m992 -1434 c-6
-25 -12 -52 -14 -61 -13 -61 -138 -279 -153 -265 -11 11 33 116 76 179 26 40
58 101 71 135 27 72 34 76 20 12z m-489 -514 c-19 -62 -34 -96 -42 -96 -5 0
-8 -6 -8 -13 0 -7 -13 -28 -30 -47 l-30 -35 15 44 c22 64 99 213 104 200 2 -6
-2 -30 -9 -53z m25 -107 c-11 -108 -61 -237 -117 -302 l-27 -32 -1 96 0 96 49
49 c27 27 59 68 71 92 12 23 24 42 25 42 2 0 2 -19 0 -41z m-460 -315 c-2 -43
-6 -89 -9 -101 -8 -37 10 -26 41 25 36 58 52 99 55 135 3 31 14 36 22 10 12
-42 21 -168 17 -244 -1 -25 -3 -26 -33 -20 -64 15 -178 90 -178 117 0 8 9 29
19 47 11 19 27 60 37 91 23 73 34 51 29 -60z m422 13 c-14 -23 -39 -58 -55
-77 l-30 -35 -7 27 c-6 22 1 34 52 85 32 32 60 55 61 50 2 -4 -8 -26 -21 -50z
m-520 -37 c0 -25 -4 -39 -11 -37 -14 5 -6 77 8 77 2 0 3 -18 3 -40z"/>
</g>
</svg>
